<mxfile host="65bd71144e">
    <diagram id="Ikyr1FNvLGh7gO3dsZML" name="Page-1">
        <mxGraphModel dx="358" dy="474" grid="0" gridSize="10" guides="1" tooltips="1" connect="1" arrows="1" fold="1" page="1" pageScale="1" pageWidth="850" pageHeight="1100" background="none" math="0" shadow="0">
            <root>
                <mxCell id="0"/>
                <mxCell id="1" parent="0"/>
                <mxCell id="3" value="" style="rounded=1;whiteSpace=wrap;html=1;" parent="1" vertex="1">
                    <mxGeometry x="149" width="261" height="290" as="geometry"/>
                </mxCell>
                <mxCell id="15" style="edgeStyle=orthogonalEdgeStyle;html=1;entryX=0;entryY=0.5;entryDx=0;entryDy=0;exitX=0.5;exitY=0.5;exitDx=0;exitDy=0;exitPerimeter=0;" parent="1" source="64" target="14" edge="1">
                    <mxGeometry relative="1" as="geometry"/>
                </mxCell>
                <mxCell id="65" style="edgeStyle=orthogonalEdgeStyle;html=1;entryX=1;entryY=0.5;entryDx=0;entryDy=0;" edge="1" parent="1" source="2" target="34">
                    <mxGeometry relative="1" as="geometry"/>
                </mxCell>
                <mxCell id="66" style="edgeStyle=orthogonalEdgeStyle;html=1;entryX=1;entryY=0.5;entryDx=0;entryDy=0;" edge="1" parent="1" source="2" target="35">
                    <mxGeometry relative="1" as="geometry"/>
                </mxCell>
                <mxCell id="67" style="edgeStyle=orthogonalEdgeStyle;html=1;entryX=1;entryY=0.5;entryDx=0;entryDy=0;" edge="1" parent="1" source="2" target="36">
                    <mxGeometry relative="1" as="geometry"/>
                </mxCell>
                <mxCell id="68" style="edgeStyle=orthogonalEdgeStyle;html=1;entryX=1;entryY=0.5;entryDx=0;entryDy=0;" edge="1" parent="1" source="2" target="9">
                    <mxGeometry relative="1" as="geometry">
                        <Array as="points">
                            <mxPoint x="281" y="145"/>
                            <mxPoint x="281" y="185"/>
                        </Array>
                    </mxGeometry>
                </mxCell>
                <mxCell id="69" style="edgeStyle=orthogonalEdgeStyle;html=1;entryX=1;entryY=0.5;entryDx=0;entryDy=0;" edge="1" parent="1" source="2" target="14">
                    <mxGeometry relative="1" as="geometry">
                        <Array as="points">
                            <mxPoint x="281" y="145"/>
                            <mxPoint x="281" y="255"/>
                        </Array>
                    </mxGeometry>
                </mxCell>
                <mxCell id="72" style="edgeStyle=orthogonalEdgeStyle;html=1;entryX=1;entryY=0.5;entryDx=0;entryDy=0;" edge="1" parent="1" source="2" target="70">
                    <mxGeometry relative="1" as="geometry"/>
                </mxCell>
                <mxCell id="2" value="Client" style="shape=umlActor;html=1;verticalLabelPosition=bottom;verticalAlign=top;align=center;" parent="1" vertex="1">
                    <mxGeometry x="473" y="115" width="30" height="60" as="geometry"/>
                </mxCell>
                <mxCell id="37" style="edgeStyle=orthogonalEdgeStyle;html=1;entryX=0;entryY=0.5;entryDx=0;entryDy=0;" parent="1" source="7" target="34" edge="1">
                    <mxGeometry relative="1" as="geometry"/>
                </mxCell>
                <mxCell id="38" style="edgeStyle=orthogonalEdgeStyle;html=1;entryX=0;entryY=0.5;entryDx=0;entryDy=0;" parent="1" source="7" target="35" edge="1">
                    <mxGeometry relative="1" as="geometry"/>
                </mxCell>
                <mxCell id="39" style="edgeStyle=orthogonalEdgeStyle;html=1;entryX=0;entryY=0.5;entryDx=0;entryDy=0;" parent="1" source="7" target="36" edge="1">
                    <mxGeometry relative="1" as="geometry"/>
                </mxCell>
                <mxCell id="7" value="Move" style="shape=ellipse;html=1;strokeWidth=3;fontStyle=1;whiteSpace=wrap;align=center;perimeter=ellipsePerimeter;" parent="1" vertex="1">
                    <mxGeometry x="170" y="40" width="80" height="30" as="geometry"/>
                </mxCell>
                <mxCell id="8" value="Fire" style="shape=ellipse;html=1;strokeWidth=3;fontStyle=1;whiteSpace=wrap;align=center;perimeter=ellipsePerimeter;" parent="1" vertex="1">
                    <mxGeometry x="170" y="105" width="80" height="30" as="geometry"/>
                </mxCell>
                <mxCell id="9" value="Repair" style="shape=ellipse;html=1;strokeWidth=3;fontStyle=1;whiteSpace=wrap;align=center;perimeter=ellipsePerimeter;" parent="1" vertex="1">
                    <mxGeometry x="170" y="170" width="80" height="30" as="geometry"/>
                </mxCell>
                <mxCell id="10" style="edgeStyle=orthogonalEdgeStyle;html=1;entryX=0;entryY=0.5;entryDx=0;entryDy=0;exitX=0.5;exitY=0.5;exitDx=0;exitDy=0;exitPerimeter=0;" parent="1" source="64" target="7" edge="1">
                    <mxGeometry relative="1" as="geometry">
                        <mxPoint x="93" y="130" as="sourcePoint"/>
                    </mxGeometry>
                </mxCell>
                <mxCell id="11" style="edgeStyle=orthogonalEdgeStyle;html=1;entryX=0;entryY=0.5;entryDx=0;entryDy=0;exitX=0.5;exitY=0.5;exitDx=0;exitDy=0;exitPerimeter=0;" parent="1" source="64" target="8" edge="1">
                    <mxGeometry relative="1" as="geometry"/>
                </mxCell>
                <mxCell id="12" style="edgeStyle=orthogonalEdgeStyle;html=1;entryX=0;entryY=0.5;entryDx=0;entryDy=0;" parent="1" source="64" target="9" edge="1">
                    <mxGeometry relative="1" as="geometry"/>
                </mxCell>
                <mxCell id="14" value="Shop" style="shape=ellipse;html=1;strokeWidth=3;fontStyle=1;whiteSpace=wrap;align=center;perimeter=ellipsePerimeter;" parent="1" vertex="1">
                    <mxGeometry x="170" y="240" width="80" height="30" as="geometry"/>
                </mxCell>
                <mxCell id="30" value="" style="swimlane;fontStyle=0;childLayout=stackLayout;horizontal=1;startSize=30;horizontalStack=0;resizeParent=1;resizeParentMax=0;resizeLast=0;collapsible=0;marginBottom=0;whiteSpace=wrap;html=1;align=left;expand=1;resizeWidth=1;resizeHeight=1;" parent="1" vertex="1">
                    <mxGeometry x="29" y="337" width="350" height="563" as="geometry"/>
                </mxCell>
                <mxCell id="31" value="Name: Move&lt;br&gt;Goal: Realize the movement action that the user gave as input&lt;br&gt;Actors: Player and Client" style="text;strokeColor=none;fillColor=default;align=left;verticalAlign=top;spacingLeft=4;spacingRight=4;overflow=hidden;points=[[0,0.5],[1,0.5]];portConstraint=eastwest;rotatable=0;whiteSpace=wrap;html=1;resizeWidth=1;resizeHeight=1;imageAspect=0;" parent="30" vertex="1">
                    <mxGeometry y="30" width="350" height="60" as="geometry"/>
                </mxCell>
                <mxCell id="22" value="Basic Flow:" style="swimlane;fontStyle=0;childLayout=stackLayout;horizontal=1;startSize=30;horizontalStack=0;resizeParent=1;resizeParentMax=0;resizeLast=0;collapsible=0;marginBottom=0;whiteSpace=wrap;html=1;align=left;expand=1;resizeWidth=1;resizeHeight=1;" parent="30" vertex="1">
                    <mxGeometry y="90" width="350" height="273" as="geometry"/>
                </mxCell>
                <mxCell id="25" value="{User Input}&lt;br&gt;1. Player Inputs key&lt;br&gt;{Evaluate Input}&lt;br&gt;2. Client Receives input and analyzes key pressed&lt;br&gt;{Realize Action}&lt;br&gt;2. Action is added in the queue&lt;br&gt;3. Webpage shows the realized action&lt;br&gt;{Continue}&lt;br&gt;4. Console waits for next key" style="text;strokeColor=none;fillColor=default;align=left;verticalAlign=top;spacingLeft=4;spacingRight=4;overflow=hidden;points=[[0,0.5],[1,0.5]];portConstraint=eastwest;rotatable=0;whiteSpace=wrap;html=1;resizeWidth=1;resizeHeight=1;imageAspect=0;" parent="22" vertex="1">
                    <mxGeometry y="30" width="350" height="143" as="geometry"/>
                </mxCell>
                <mxCell id="32" value="Alternative Flow:" style="swimlane;fontStyle=0;childLayout=stackLayout;horizontal=1;startSize=30;horizontalStack=0;resizeParent=1;resizeParentMax=0;resizeLast=0;collapsible=0;marginBottom=0;whiteSpace=wrap;html=1;align=left;expand=1;resizeWidth=1;resizeHeight=1;" parent="22" vertex="1">
                    <mxGeometry y="173" width="350" height="100" as="geometry"/>
                </mxCell>
                <mxCell id="33" value="@ {Realize Action}&lt;br&gt;2b. Key is not associated to any Action&lt;br&gt;3b. Console prints &quot;Error&quot;&lt;br&gt;Resume @{Continue}&amp;nbsp;" style="text;strokeColor=none;fillColor=default;align=left;verticalAlign=top;spacingLeft=4;spacingRight=4;overflow=hidden;points=[[0,0.5],[1,0.5]];portConstraint=eastwest;rotatable=0;whiteSpace=wrap;html=1;resizeWidth=1;resizeHeight=1;imageAspect=0;" parent="32" vertex="1">
                    <mxGeometry y="30" width="350" height="70" as="geometry"/>
                </mxCell>
                <mxCell id="40" value="Alternative Flow:" style="swimlane;fontStyle=0;childLayout=stackLayout;horizontal=1;startSize=30;horizontalStack=0;resizeParent=1;resizeParentMax=0;resizeLast=0;collapsible=0;marginBottom=0;whiteSpace=wrap;html=1;align=left;expand=1;resizeWidth=1;resizeHeight=1;" vertex="1" parent="30">
                    <mxGeometry y="363" width="350" height="100" as="geometry"/>
                </mxCell>
                <mxCell id="41" value="@ {Realize Action}&lt;br&gt;2c. Key associated to &quot;Exit&quot; Action&lt;br&gt;3c. Program stops running" style="text;strokeColor=none;fillColor=default;align=left;verticalAlign=top;spacingLeft=4;spacingRight=4;overflow=hidden;points=[[0,0.5],[1,0.5]];portConstraint=eastwest;rotatable=0;whiteSpace=wrap;html=1;resizeWidth=1;resizeHeight=1;imageAspect=0;" vertex="1" parent="40">
                    <mxGeometry y="30" width="350" height="70" as="geometry"/>
                </mxCell>
                <mxCell id="42" value="Bounded Alternative Flow:" style="swimlane;fontStyle=0;childLayout=stackLayout;horizontal=1;startSize=30;horizontalStack=0;resizeParent=1;resizeParentMax=0;resizeLast=0;collapsible=0;marginBottom=0;whiteSpace=wrap;html=1;align=left;expand=1;resizeWidth=1;resizeHeight=1;" vertex="1" parent="30">
                    <mxGeometry y="463" width="350" height="100" as="geometry"/>
                </mxCell>
                <mxCell id="43" value="@ Any point between {User Input} and {Continue}&lt;br&gt;If network connection is lost&lt;br&gt;Display &quot;Trying to reconnect to server&quot;" style="text;strokeColor=none;fillColor=default;align=left;verticalAlign=top;spacingLeft=4;spacingRight=4;overflow=hidden;points=[[0,0.5],[1,0.5]];portConstraint=eastwest;rotatable=0;whiteSpace=wrap;html=1;resizeWidth=1;resizeHeight=1;imageAspect=0;" vertex="1" parent="42">
                    <mxGeometry y="30" width="350" height="70" as="geometry"/>
                </mxCell>
                <mxCell id="34" value="Foward" style="shape=ellipse;html=1;strokeWidth=3;fontStyle=1;whiteSpace=wrap;align=center;perimeter=ellipsePerimeter;" parent="1" vertex="1">
                    <mxGeometry x="300" y="10" width="80" height="30" as="geometry"/>
                </mxCell>
                <mxCell id="35" value="Turn Left" style="shape=ellipse;html=1;strokeWidth=3;fontStyle=1;whiteSpace=wrap;align=center;perimeter=ellipsePerimeter;" parent="1" vertex="1">
                    <mxGeometry x="300" y="60" width="80" height="30" as="geometry"/>
                </mxCell>
                <mxCell id="36" value="Turn Right" style="shape=ellipse;html=1;strokeWidth=3;fontStyle=1;whiteSpace=wrap;align=center;perimeter=ellipsePerimeter;" parent="1" vertex="1">
                    <mxGeometry x="300" y="110" width="80" height="30" as="geometry"/>
                </mxCell>
                <mxCell id="44" value="" style="swimlane;fontStyle=0;childLayout=stackLayout;horizontal=1;startSize=30;horizontalStack=0;resizeParent=1;resizeParentMax=0;resizeLast=0;collapsible=0;marginBottom=0;whiteSpace=wrap;html=1;align=left;expand=1;resizeWidth=1;resizeHeight=1;" vertex="1" parent="1">
                    <mxGeometry x="425" y="338" width="350" height="617" as="geometry"/>
                </mxCell>
                <mxCell id="45" value="Name: Fire&lt;br&gt;Goal: Fire weapon from Player 1 to Player 2 and leave player 2 with less HP&lt;br&gt;Actors: Player1, Player2 and client" style="text;strokeColor=none;fillColor=default;align=left;verticalAlign=top;spacingLeft=4;spacingRight=4;overflow=hidden;points=[[0,0.5],[1,0.5]];portConstraint=eastwest;rotatable=0;whiteSpace=wrap;html=1;resizeWidth=1;resizeHeight=1;imageAspect=0;" vertex="1" parent="44">
                    <mxGeometry y="30" width="350" height="83" as="geometry"/>
                </mxCell>
                <mxCell id="46" value="Basic Flow:" style="swimlane;fontStyle=0;childLayout=stackLayout;horizontal=1;startSize=30;horizontalStack=0;resizeParent=1;resizeParentMax=0;resizeLast=0;collapsible=0;marginBottom=0;whiteSpace=wrap;html=1;align=left;expand=1;resizeWidth=1;resizeHeight=1;" vertex="1" parent="44">
                    <mxGeometry y="113" width="350" height="304" as="geometry"/>
                </mxCell>
                <mxCell id="47" value="{User Input}&lt;br&gt;1. User Inputs fire key&lt;br&gt;{Evaluate Aligment}&lt;br&gt;2. Client Receives input and analyzes if Player 2 is aligned with the player 1 direction&lt;br&gt;{Fire}&lt;br&gt;2. Action Fire is added in the queue&lt;br&gt;{Hit}&lt;br&gt;3. Player 2 looses HP&lt;br&gt;{Continue}&lt;br&gt;4. Console waits for next key" style="text;strokeColor=none;fillColor=default;align=left;verticalAlign=top;spacingLeft=4;spacingRight=4;overflow=hidden;points=[[0,0.5],[1,0.5]];portConstraint=eastwest;rotatable=0;whiteSpace=wrap;html=1;resizeWidth=1;resizeHeight=1;imageAspect=0;" vertex="1" parent="46">
                    <mxGeometry y="30" width="350" height="174" as="geometry"/>
                </mxCell>
                <mxCell id="48" value="Alternative Flow:" style="swimlane;fontStyle=0;childLayout=stackLayout;horizontal=1;startSize=30;horizontalStack=0;resizeParent=1;resizeParentMax=0;resizeLast=0;collapsible=0;marginBottom=0;whiteSpace=wrap;html=1;align=left;expand=1;resizeWidth=1;resizeHeight=1;" vertex="1" parent="46">
                    <mxGeometry y="204" width="350" height="100" as="geometry"/>
                </mxCell>
                <mxCell id="49" value="@ {Evaluate Aligment}&lt;br&gt;2b. Player2 is not aligned&lt;br&gt;3b. Console prints &quot;Error&quot;&lt;br&gt;Resume @{Continue}&amp;nbsp;" style="text;strokeColor=none;fillColor=default;align=left;verticalAlign=top;spacingLeft=4;spacingRight=4;overflow=hidden;points=[[0,0.5],[1,0.5]];portConstraint=eastwest;rotatable=0;whiteSpace=wrap;html=1;resizeWidth=1;resizeHeight=1;imageAspect=0;" vertex="1" parent="48">
                    <mxGeometry y="30" width="350" height="70" as="geometry"/>
                </mxCell>
                <mxCell id="50" value="Alternative Flow:" style="swimlane;fontStyle=0;childLayout=stackLayout;horizontal=1;startSize=30;horizontalStack=0;resizeParent=1;resizeParentMax=0;resizeLast=0;collapsible=0;marginBottom=0;whiteSpace=wrap;html=1;align=left;expand=1;resizeWidth=1;resizeHeight=1;" vertex="1" parent="44">
                    <mxGeometry y="417" width="350" height="100" as="geometry"/>
                </mxCell>
                <mxCell id="51" value="@ {Hit}&lt;br&gt;3c. Player2 still has Shields&lt;br&gt;3c. The total % of Player2's shield is decreased&lt;br&gt;Resume @ {Continue}" style="text;strokeColor=none;fillColor=default;align=left;verticalAlign=top;spacingLeft=4;spacingRight=4;overflow=hidden;points=[[0,0.5],[1,0.5]];portConstraint=eastwest;rotatable=0;whiteSpace=wrap;html=1;resizeWidth=1;resizeHeight=1;imageAspect=0;" vertex="1" parent="50">
                    <mxGeometry y="30" width="350" height="70" as="geometry"/>
                </mxCell>
                <mxCell id="52" value="Bounded Alternative Flow:" style="swimlane;fontStyle=0;childLayout=stackLayout;horizontal=1;startSize=30;horizontalStack=0;resizeParent=1;resizeParentMax=0;resizeLast=0;collapsible=0;marginBottom=0;whiteSpace=wrap;html=1;align=left;expand=1;resizeWidth=1;resizeHeight=1;" vertex="1" parent="44">
                    <mxGeometry y="517" width="350" height="100" as="geometry"/>
                </mxCell>
                <mxCell id="53" value="@ Any point between {User Input} and {Continue}&lt;br&gt;If network connection is lost&lt;br&gt;Display &quot;Trying to reconnect to server&quot;" style="text;strokeColor=none;fillColor=default;align=left;verticalAlign=top;spacingLeft=4;spacingRight=4;overflow=hidden;points=[[0,0.5],[1,0.5]];portConstraint=eastwest;rotatable=0;whiteSpace=wrap;html=1;resizeWidth=1;resizeHeight=1;imageAspect=0;" vertex="1" parent="52">
                    <mxGeometry y="30" width="350" height="70" as="geometry"/>
                </mxCell>
                <mxCell id="54" value="" style="swimlane;fontStyle=0;childLayout=stackLayout;horizontal=1;startSize=30;horizontalStack=0;resizeParent=1;resizeParentMax=0;resizeLast=0;collapsible=0;marginBottom=0;whiteSpace=wrap;html=1;align=left;expand=1;resizeWidth=1;resizeHeight=1;" vertex="1" parent="1">
                    <mxGeometry x="29" y="915" width="350" height="563" as="geometry"/>
                </mxCell>
                <mxCell id="55" value="Name: Shop&lt;br&gt;Goal: User buys a new Weapon&lt;br&gt;Actors: Player and Client" style="text;strokeColor=none;fillColor=default;align=left;verticalAlign=top;spacingLeft=4;spacingRight=4;overflow=hidden;points=[[0,0.5],[1,0.5]];portConstraint=eastwest;rotatable=0;whiteSpace=wrap;html=1;resizeWidth=1;resizeHeight=1;imageAspect=0;" vertex="1" parent="54">
                    <mxGeometry y="30" width="350" height="60" as="geometry"/>
                </mxCell>
                <mxCell id="56" value="Basic Flow:" style="swimlane;fontStyle=0;childLayout=stackLayout;horizontal=1;startSize=30;horizontalStack=0;resizeParent=1;resizeParentMax=0;resizeLast=0;collapsible=0;marginBottom=0;whiteSpace=wrap;html=1;align=left;expand=1;resizeWidth=1;resizeHeight=1;" vertex="1" parent="54">
                    <mxGeometry y="90" width="350" height="273" as="geometry"/>
                </mxCell>
                <mxCell id="57" value="{User Input}&lt;br&gt;1. User Inputs Shop key&lt;br&gt;{Receive Weapon Name Input}&lt;br&gt;2. User writes the Weapon to buy name&lt;br&gt;{Buy}&lt;br&gt;3. Weapon is added in Players Inventory&lt;br&gt;3. Credits are removed from Player&lt;br&gt;{Continue}&lt;br&gt;4. Console waits for next key" style="text;strokeColor=none;fillColor=default;align=left;verticalAlign=top;spacingLeft=4;spacingRight=4;overflow=hidden;points=[[0,0.5],[1,0.5]];portConstraint=eastwest;rotatable=0;whiteSpace=wrap;html=1;resizeWidth=1;resizeHeight=1;imageAspect=0;" vertex="1" parent="56">
                    <mxGeometry y="30" width="350" height="143" as="geometry"/>
                </mxCell>
                <mxCell id="58" value="Alternative Flow:" style="swimlane;fontStyle=0;childLayout=stackLayout;horizontal=1;startSize=30;horizontalStack=0;resizeParent=1;resizeParentMax=0;resizeLast=0;collapsible=0;marginBottom=0;whiteSpace=wrap;html=1;align=left;expand=1;resizeWidth=1;resizeHeight=1;" vertex="1" parent="56">
                    <mxGeometry y="173" width="350" height="100" as="geometry"/>
                </mxCell>
                <mxCell id="59" value="@ {Receive Weapon Name Input}&lt;br&gt;2b. User writes wrong name&lt;br&gt;3b. Console prints &quot;Error: No weapon with such name&quot;&lt;br&gt;Resume @{Continue}&amp;nbsp;" style="text;strokeColor=none;fillColor=default;align=left;verticalAlign=top;spacingLeft=4;spacingRight=4;overflow=hidden;points=[[0,0.5],[1,0.5]];portConstraint=eastwest;rotatable=0;whiteSpace=wrap;html=1;resizeWidth=1;resizeHeight=1;imageAspect=0;" vertex="1" parent="58">
                    <mxGeometry y="30" width="350" height="70" as="geometry"/>
                </mxCell>
                <mxCell id="60" value="Alternative Flow:" style="swimlane;fontStyle=0;childLayout=stackLayout;horizontal=1;startSize=30;horizontalStack=0;resizeParent=1;resizeParentMax=0;resizeLast=0;collapsible=0;marginBottom=0;whiteSpace=wrap;html=1;align=left;expand=1;resizeWidth=1;resizeHeight=1;" vertex="1" parent="54">
                    <mxGeometry y="363" width="350" height="100" as="geometry"/>
                </mxCell>
                <mxCell id="61" value="@ {Receive Wea[pm Name Input}&lt;br&gt;2c. Player does not have enough credit&lt;br&gt;3c. Console prints &quot;Error: not enough credits to buy&quot;&lt;br&gt;Resume @{Continue}" style="text;strokeColor=none;fillColor=default;align=left;verticalAlign=top;spacingLeft=4;spacingRight=4;overflow=hidden;points=[[0,0.5],[1,0.5]];portConstraint=eastwest;rotatable=0;whiteSpace=wrap;html=1;resizeWidth=1;resizeHeight=1;imageAspect=0;" vertex="1" parent="60">
                    <mxGeometry y="30" width="350" height="70" as="geometry"/>
                </mxCell>
                <mxCell id="62" value="Bounded Alternative Flow:" style="swimlane;fontStyle=0;childLayout=stackLayout;horizontal=1;startSize=30;horizontalStack=0;resizeParent=1;resizeParentMax=0;resizeLast=0;collapsible=0;marginBottom=0;whiteSpace=wrap;html=1;align=left;expand=1;resizeWidth=1;resizeHeight=1;" vertex="1" parent="54">
                    <mxGeometry y="463" width="350" height="100" as="geometry"/>
                </mxCell>
                <mxCell id="63" value="@ Any point between {User Input} and {Continue}&lt;br&gt;If network connection is lost&lt;br&gt;Display &quot;Trying to reconnect to server&quot;" style="text;strokeColor=none;fillColor=default;align=left;verticalAlign=top;spacingLeft=4;spacingRight=4;overflow=hidden;points=[[0,0.5],[1,0.5]];portConstraint=eastwest;rotatable=0;whiteSpace=wrap;html=1;resizeWidth=1;resizeHeight=1;imageAspect=0;" vertex="1" parent="62">
                    <mxGeometry y="30" width="350" height="70" as="geometry"/>
                </mxCell>
                <mxCell id="71" style="edgeStyle=orthogonalEdgeStyle;html=1;entryX=0;entryY=0.5;entryDx=0;entryDy=0;" edge="1" parent="1" source="64" target="70">
                    <mxGeometry relative="1" as="geometry">
                        <Array as="points">
                            <mxPoint x="135" y="130"/>
                            <mxPoint x="135" y="212"/>
                        </Array>
                    </mxGeometry>
                </mxCell>
                <mxCell id="64" value="Player" style="shape=umlActor;html=1;verticalLabelPosition=bottom;verticalAlign=top;align=center;" vertex="1" parent="1">
                    <mxGeometry x="70" y="100" width="30" height="60" as="geometry"/>
                </mxCell>
                <mxCell id="70" value="HUD" style="shape=ellipse;html=1;strokeWidth=3;fontStyle=1;whiteSpace=wrap;align=center;perimeter=ellipsePerimeter;" vertex="1" parent="1">
                    <mxGeometry x="300" y="197" width="80" height="30" as="geometry"/>
                </mxCell>
            </root>
        </mxGraphModel>
    </diagram>
</mxfile>